#Comment line ignore any data following # character 
#Hierarchical Translation and Rotation (.htr) file 
[Header]	
#Header keywords are followed by a single value 
FileType HTR		#Single word string
DataType HTRS		#Translation followed by rotation and scale data
FileVersion 1		#integer
NumSegments 84		#integer
NumFrames 2		#integer
DataFrameRate 30		#integer, data frame rate in this file
EulerRotationOrder ZYX
CalibrationUnits mm
RotationUnits Degrees
GlobalAxisofGravity Y
BoneLengthAxis Y
ScaleFactor 1.00
[SegmentNames&Hierarchy]
#CHILD	PARENT
MASTER GLOBAL
root MASTER
chest root
L_mid_tent01 root
R_mid_tent01 root
spine01 root
Bip01_Neck chest
L_humerus chest
R_humerus chest
weapon_bone chest
Bip01_Head Bip01_Neck
eye_left_bone Bip01_Head
eye_right_bone Bip01_Head
L_forearm L_humerus
L_front_hand L_forearm
L_weapon_bone L_forearm
L_front_hand01_01 L_front_hand
L_front_hand02_01 L_front_hand
L_front_hand03_01 L_front_hand
L_front_hand01_02 L_front_hand01_01
L_front_hand02_02 L_front_hand02_01
L_front_hand03_02 L_front_hand03_01
R_forearm R_humerus
R_front_hand R_forearm
R_weapon_bone R_forearm
R_front_hand01_01 R_front_hand
R_front_hand02_01 R_front_hand
R_front_hand03_01 R_front_hand
R_front_hand01_02 R_front_hand01_01
R_front_hand02_02 R_front_hand02_01
R_front_hand03_02 R_front_hand03_01
null_rope01_connect L_mid_tent01
Rope1_Seg01 null_rope01_connect
Rope1_Seg02 Rope1_Seg01
Rope1_Seg03 Rope1_Seg02
Rope1_Seg04 Rope1_Seg03
Rope1_Seg05 Rope1_Seg04
Rope1_Seg06 Rope1_Seg05
Rope1_Seg07 Rope1_Seg06
Rope1_Seg09 Rope1_Seg07
L_mid_hand01 Rope1_Seg09
L_mid_hand02 Rope1_Seg09
L_mid_hand03 Rope1_Seg09
null_rope02_connect R_mid_tent01
Rope2_Seg01 null_rope02_connect
Rope2_Seg02 Rope2_Seg01
Rope2_Seg03 Rope2_Seg02
Rope2_Seg04 Rope2_Seg03
Rope2_Seg05 Rope2_Seg04
Rope2_Seg06 Rope2_Seg05
Rope2_Seg07 Rope2_Seg06
Rope2_Seg09 Rope2_Seg07
R_mid_hand01 Rope2_Seg09
R_mid_hand02 Rope2_Seg09
R_mid_hand03 Rope2_Seg09
spine02 spine01
spine03 spine02
pelvis spine03
null_rope03_connect pelvis
null_rope04_connect pelvis
Rope3_Seg01 null_rope03_connect
Rope3_Seg02 Rope3_Seg01
Rope3_Seg03 Rope3_Seg02
Rope3_Seg04 Rope3_Seg03
Rope3_Seg05 Rope3_Seg04
Rope3_Seg06 Rope3_Seg05
Rope3_Seg07 Rope3_Seg06
Rope3_Seg08 Rope3_Seg07
Rope3_Seg09 Rope3_Seg08
R_rear_hand01 Rope3_Seg09
R_rear_hand02 Rope3_Seg09
R_rear_hand03 Rope3_Seg09
Rope4_Seg01 null_rope04_connect
Rope4_Seg02 Rope4_Seg01
Rope4_Seg03 Rope4_Seg02
Rope4_Seg04 Rope4_Seg03
Rope4_Seg05 Rope4_Seg04
Rope4_Seg06 Rope4_Seg05
Rope4_Seg07 Rope4_Seg06
Rope4_Seg08 Rope4_Seg07
Rope4_Seg09 Rope4_Seg08
L_rear_hand01 Rope4_Seg09
L_rear_hand02 Rope4_Seg09
L_rear_hand03 Rope4_Seg09
[BasePosition]
#SegmentName Tx, Ty, Tz, Rx, Ry, Rz, BoneLength
MASTER 0.000000 0.000000 0.000000 -90.000000 0.000000 0.000000 10.000000 
root 0.000000 0.000000 0.000000 0.000000 0.000000 0.000000 10.000000 
chest 0.000000 0.000000 0.000000 0.000000 0.000000 0.000000 10.000000 
L_mid_tent01 0.000000 0.000000 0.000000 0.000000 0.000000 0.000000 10.000000 
R_mid_tent01 0.000000 0.000000 0.000000 0.000000 0.000000 0.000000 10.000000 
spine01 0.000000 0.000000 0.000000 0.000000 0.000000 0.000000 10.000000 
Bip01_Neck 0.000000 0.000000 0.000000 0.000000 0.000000 0.000000 10.000000 
L_humerus 0.000000 0.000000 0.000000 0.000000 0.000000 0.000000 10.000000 
R_humerus 0.000000 0.000000 0.000000 0.000000 0.000000 0.000000 10.000000 
weapon_bone 0.000000 0.000000 0.000000 0.000000 0.000000 0.000000 10.000000 
Bip01_Head 0.000000 0.000000 0.000000 0.000000 0.000000 0.000000 10.000000 
eye_left_bone 0.000000 0.000000 0.000000 0.000000 0.000000 0.000000 10.000000 
eye_right_bone 0.000000 0.000000 0.000000 0.000000 0.000000 0.000000 10.000000 
L_forearm 0.000000 0.000000 0.000000 0.000000 0.000000 0.000000 10.000000 
L_front_hand 0.000000 0.000000 0.000000 0.000000 0.000000 0.000000 10.000000 
L_weapon_bone 0.000000 0.000000 0.000000 0.000000 0.000000 0.000000 10.000000 
L_front_hand01_01 0.000000 0.000000 0.000000 0.000000 0.000000 0.000000 10.000000 
L_front_hand02_01 0.000000 0.000000 0.000000 0.000000 0.000000 0.000000 10.000000 
L_front_hand03_01 0.000000 0.000000 0.000000 0.000000 0.000000 0.000000 10.000000 
L_front_hand01_02 0.000000 0.000000 0.000000 0.000000 0.000000 0.000000 10.000000 
L_front_hand02_02 0.000000 0.000000 0.000000 0.000000 0.000000 0.000000 10.000000 
L_front_hand03_02 0.000000 0.000000 0.000000 0.000000 0.000000 0.000000 10.000000 
R_forearm 0.000000 0.000000 0.000000 0.000000 0.000000 0.000000 10.000000 
R_front_hand 0.000000 0.000000 0.000000 0.000000 0.000000 0.000000 10.000000 
R_weapon_bone 0.000000 0.000000 0.000000 0.000000 0.000000 0.000000 10.000000 
R_front_hand01_01 0.000000 0.000000 0.000000 0.000000 0.000000 0.000000 10.000000 
R_front_hand02_01 0.000000 0.000000 0.000000 0.000000 0.000000 0.000000 10.000000 
R_front_hand03_01 0.000000 0.000000 0.000000 0.000000 0.000000 0.000000 10.000000 
R_front_hand01_02 0.000000 0.000000 0.000000 0.000000 0.000000 0.000000 10.000000 
R_front_hand02_02 0.000000 0.000000 0.000000 0.000000 0.000000 0.000000 10.000000 
R_front_hand03_02 0.000000 0.000000 0.000000 0.000000 0.000000 0.000000 10.000000 
null_rope01_connect 0.000000 0.000000 0.000000 0.000000 0.000000 0.000000 10.000000 
Rope1_Seg01 0.000000 0.000000 0.000000 0.000000 0.000000 0.000000 10.000000 
Rope1_Seg02 0.000000 0.000000 0.000000 0.000000 0.000000 0.000000 10.000000 
Rope1_Seg03 0.000000 0.000000 0.000000 0.000000 0.000000 0.000000 10.000000 
Rope1_Seg04 0.000000 0.000000 0.000000 0.000000 0.000000 0.000000 10.000000 
Rope1_Seg05 0.000000 0.000000 0.000000 0.000000 0.000000 0.000000 10.000000 
Rope1_Seg06 0.000000 0.000000 0.000000 0.000000 0.000000 0.000000 10.000000 
Rope1_Seg07 0.000000 0.000000 0.000000 0.000000 0.000000 0.000000 10.000000 
Rope1_Seg09 0.000000 0.000000 0.000000 0.000000 0.000000 0.000000 10.000000 
L_mid_hand01 0.000000 0.000000 0.000000 0.000000 0.000000 0.000000 10.000000 
L_mid_hand02 0.000000 0.000000 0.000000 0.000000 0.000000 0.000000 10.000000 
L_mid_hand03 0.000000 0.000000 0.000000 0.000000 0.000000 0.000000 10.000000 
null_rope02_connect 0.000000 0.000000 0.000000 0.000000 0.000000 0.000000 10.000000 
Rope2_Seg01 0.000000 0.000000 0.000000 0.000000 0.000000 0.000000 10.000000 
Rope2_Seg02 0.000000 0.000000 0.000000 0.000000 0.000000 0.000000 10.000000 
Rope2_Seg03 0.000000 0.000000 0.000000 0.000000 0.000000 0.000000 10.000000 
Rope2_Seg04 0.000000 0.000000 0.000000 0.000000 0.000000 0.000000 10.000000 
Rope2_Seg05 0.000000 0.000000 0.000000 0.000000 0.000000 0.000000 10.000000 
Rope2_Seg06 0.000000 0.000000 0.000000 0.000000 0.000000 0.000000 10.000000 
Rope2_Seg07 0.000000 0.000000 0.000000 0.000000 0.000000 0.000000 10.000000 
Rope2_Seg09 0.000000 0.000000 0.000000 0.000000 0.000000 0.000000 10.000000 
R_mid_hand01 0.000000 0.000000 0.000000 0.000000 0.000000 0.000000 10.000000 
R_mid_hand02 0.000000 0.000000 0.000000 0.000000 0.000000 0.000000 10.000000 
R_mid_hand03 0.000000 0.000000 0.000000 0.000000 0.000000 0.000000 10.000000 
spine02 0.000000 0.000000 0.000000 0.000000 0.000000 0.000000 10.000000 
spine03 0.000000 0.000000 0.000000 0.000000 0.000000 0.000000 10.000000 
pelvis 0.000000 0.000000 0.000000 0.000000 0.000000 0.000000 10.000000 
null_rope03_connect 0.000000 0.000000 0.000000 0.000000 0.000000 0.000000 10.000000 
null_rope04_connect 0.000000 0.000000 0.000000 0.000000 0.000000 0.000000 10.000000 
Rope3_Seg01 0.000000 0.000000 0.000000 0.000000 0.000000 0.000000 10.000000 
Rope3_Seg02 0.000000 0.000000 0.000000 0.000000 0.000000 0.000000 10.000000 
Rope3_Seg03 0.000000 0.000000 0.000000 0.000000 0.000000 0.000000 10.000000 
Rope3_Seg04 0.000000 0.000000 0.000000 0.000000 0.000000 0.000000 10.000000 
Rope3_Seg05 0.000000 0.000000 0.000000 0.000000 0.000000 0.000000 10.000000 
Rope3_Seg06 0.000000 0.000000 0.000000 0.000000 0.000000 0.000000 10.000000 
Rope3_Seg07 0.000000 0.000000 0.000000 0.000000 0.000000 0.000000 10.000000 
Rope3_Seg08 0.000000 0.000000 0.000000 0.000000 0.000000 0.000000 10.000000 
Rope3_Seg09 0.000000 0.000000 0.000000 0.000000 0.000000 0.000000 10.000000 
R_rear_hand01 0.000000 0.000000 0.000000 0.000000 0.000000 0.000000 10.000000 
R_rear_hand02 0.000000 0.000000 0.000000 0.000000 0.000000 0.000000 10.000000 
R_rear_hand03 0.000000 0.000000 0.000000 0.000000 0.000000 0.000000 10.000000 
Rope4_Seg01 0.000000 0.000000 0.000000 0.000000 0.000000 0.000000 10.000000 
Rope4_Seg02 0.000000 0.000000 0.000000 0.000000 0.000000 0.000000 10.000000 
Rope4_Seg03 0.000000 0.000000 0.000000 0.000000 0.000000 0.000000 10.000000 
Rope4_Seg04 0.000000 0.000000 0.000000 0.000000 0.000000 0.000000 10.000000 
Rope4_Seg05 0.000000 0.000000 0.000000 0.000000 0.000000 0.000000 10.000000 
Rope4_Seg06 0.000000 0.000000 0.000000 0.000000 0.000000 0.000000 10.000000 
Rope4_Seg07 0.000000 0.000000 0.000000 0.000000 0.000000 0.000000 10.000000 
Rope4_Seg08 0.000000 0.000000 0.000000 0.000000 0.000000 0.000000 10.000000 
Rope4_Seg09 0.000000 0.000000 0.000000 0.000000 0.000000 0.000000 10.000000 
L_rear_hand01 0.000000 0.000000 0.000000 0.000000 0.000000 0.000000 10.000000 
L_rear_hand02 0.000000 0.000000 0.000000 0.000000 0.000000 0.000000 10.000000 
L_rear_hand03 0.000000 0.000000 0.000000 0.000000 0.000000 0.000000 10.000000 
#Beginning of Data. Separated by tabs
#Fr	Tx	Ty	Tz	Rx	Ry	Rz	SF
[MASTER]
19 2505.673584 2790.114502 1898.255249 0.001660 0.001660 0.001660 4203.154785
20 2504.199219 2790.114502 1896.659912 0.001660 0.001660 0.001660 4201.555664
[root]
19 60.406490 -51.398621 304.697235 -11.804564 2.973340 -112.438477 314.851044
20 65.137489 -51.398621 304.746246 -11.791123 2.985725 -112.471596 315.840118
[chest]
19 -84.512650 -34.090519 0.000000 14.460402 10.909609 151.343124 91.129311
20 -84.512650 -34.090519 0.000000 14.683336 10.917620 151.544113 91.129311
[L_mid_tent01]
19 27.299061 22.179134 -249.918701 -0.052623 20.044048 79.769310 252.381683
20 27.299059 22.179136 -249.918701 0.018526 20.035704 80.026550 252.381683
[R_mid_tent01]
19 23.228794 24.509907 226.238495 168.972626 -21.987171 67.978378 228.744751
20 23.228794 24.509907 226.238495 168.984207 -21.976545 67.985092 228.744751
[spine01]
19 -0.361383 -0.195265 0.000000 0.001900 0.001378 18.108912 0.410763
20 -0.361383 -0.195265 0.000000 0.001900 0.001378 18.103901 0.410763
[Bip01_Neck]
19 165.484543 71.581718 0.000119 176.643677 -1.657967 43.431911 180.302734
20 165.484543 71.581718 0.000119 176.643677 -1.657967 43.431911 180.302734
[L_humerus]
19 -13.983130 -135.272980 -120.471481 138.211868 78.224884 -130.763168 181.680161
20 -13.983130 -135.272980 -120.471481 118.920166 79.361404 -146.290436 181.680161
[R_humerus]
19 -13.983309 -135.273102 125.287651 -170.624588 -66.054909 -94.459084 184.909012
20 -13.983309 -135.273102 125.287651 -170.479630 -66.758461 -94.624374 184.909012
[weapon_bone]
19 235.964890 -300.705902 0.000000 0.000000 -89.951546 -128.212341 382.234833
20 235.964890 -300.705902 0.000000 0.000000 -89.951546 -128.212341 382.234833
[Bip01_Head]
19 213.330322 186.031952 7.689389 33.055698 6.112869 -43.756916 283.155151
20 213.332138 186.026917 7.754558 42.896534 6.085748 -43.719471 283.154999
[eye_left_bone]
19 -24.626970 125.451866 -64.772606 0.000000 -90.000000 -99.840431 143.318359
20 -24.626970 125.451866 -64.772606 0.000000 -90.000000 -99.840431 143.318359
[eye_right_bone]
19 -24.626970 125.451866 64.327362 0.000000 -89.965736 80.156380 143.117676
20 -24.626970 125.451866 64.327362 0.000000 -89.965736 80.156380 143.117676
[L_forearm]
19 322.776093 0.000000 -0.000119 0.000084 -0.002346 -94.096237 322.776093
20 322.776093 0.000000 -0.000119 0.000064 -0.002346 -93.112526 322.776093
[L_front_hand]
19 241.149185 -0.042021 -3.300071 166.445786 -2.582313 -8.462825 241.171753
20 241.149185 -0.042021 -3.300071 168.756882 -2.427246 -7.529544 241.171753
[L_weapon_bone]
19 156.183838 0.000000 0.000000 0.000014 0.000007 0.000001 156.183838
20 156.183838 0.000000 0.000000 0.000014 0.000007 0.000001 156.183838
[L_front_hand01_01]
19 86.095154 20.947098 -0.655860 -0.343298 -0.494452 72.684830 88.609184
20 86.095154 20.947098 -0.655860 -0.351864 -0.488251 73.756912 88.609184
[L_front_hand02_01]
19 86.935165 -11.437475 24.513514 150.381821 -58.634853 -56.693264 91.046425
20 86.935165 -11.437475 24.513514 151.937759 -59.151104 -58.507717 91.046425
[L_front_hand03_01]
19 86.637497 -14.123976 -20.424902 -150.184570 56.852535 -58.280544 90.126129
20 86.637497 -14.123976 -20.424902 -151.626480 57.374607 -59.999687 90.126129
[L_front_hand01_02]
19 71.020905 -0.000179 0.000030 0.000327 -0.002324 -106.008484 71.020905
20 71.020905 -0.000179 0.000030 0.000329 -0.002324 -106.126221 71.020905
[L_front_hand02_02]
19 71.020927 -0.000119 0.000060 0.000327 -0.002324 -106.008484 71.020927
20 71.020927 -0.000119 0.000060 0.000329 -0.002324 -106.126221 71.020927
[L_front_hand03_02]
19 71.020905 -0.000060 0.000060 0.000327 -0.002324 -106.008484 71.020905
20 71.020905 -0.000060 0.000060 0.000329 -0.002324 -106.126221 71.020905
[R_forearm]
19 322.776428 -0.000060 0.000030 0.201187 0.067932 -109.639191 322.776428
20 322.776428 -0.000060 0.000030 0.201156 0.068025 -109.692146 322.776428
[R_front_hand]
19 238.847015 -0.006795 2.210259 -2.635298 -10.645461 -26.312506 238.857239
20 238.847015 -0.006795 2.210259 -2.635298 -10.645462 -26.312506 238.857239
[R_weapon_bone]
19 155.664093 0.002503 -0.000030 0.003487 0.001180 -90.988930 155.664078
20 155.664093 0.002503 -0.000030 0.003487 0.001180 -90.988930 155.664078
[R_front_hand01_01]
19 87.624611 14.231146 22.918642 -154.633499 -59.950619 61.746044 91.683487
20 87.624611 14.231146 22.918642 -154.633499 -59.950619 61.746044 91.683487
[R_front_hand02_01]
19 89.356956 14.367283 -19.491137 154.602661 58.302849 63.744389 92.579636
20 89.356956 14.367283 -19.491137 154.602661 58.302849 63.744389 92.579636
[R_front_hand03_01]
19 87.286232 -22.307278 -0.143439 0.162155 -0.423168 -75.767921 90.091743
20 87.286232 -22.307278 -0.143439 0.162155 -0.423168 -75.767921 90.091743
[R_front_hand01_02]
19 71.020905 0.000060 0.000119 0.002323 -0.000334 106.381714 71.020905
20 71.020905 0.000060 0.000119 0.002323 -0.000334 106.381714 71.020905
[R_front_hand02_02]
19 71.020844 -0.000030 -0.000119 0.002323 -0.000334 106.381714 71.020836
20 71.020844 -0.000030 -0.000119 0.002323 -0.000334 106.381714 71.020836
[R_front_hand03_02]
19 71.020905 0.000000 0.000030 0.002323 -0.000334 106.381714 71.020905
20 71.020905 0.000000 0.000030 0.002323 -0.000334 106.381714 71.020905
[null_rope01_connect]
19 328.732483 0.000000 -0.000238 -19.252119 -26.302977 36.737354 328.732483
20 328.732483 0.000000 -0.000238 -19.248720 -26.278250 36.513508 328.732483
[Rope1_Seg01]
19 -0.000007 -0.000086 0.000125 -47.558182 54.470619 123.989235 0.000152
20 -0.000007 -0.000089 0.000124 -40.995285 51.963238 130.026535 0.000152
[Rope1_Seg02]
19 139.999863 -0.000179 0.000000 -5.981771 14.955130 -11.142466 139.999863
20 139.999863 -0.000179 0.000000 -6.615124 16.508879 -11.797332 139.999863
[Rope1_Seg03]
19 139.999924 0.000060 -0.000060 -11.360787 12.923978 -7.228762 139.999924
20 139.999924 0.000060 -0.000060 -12.880676 14.301751 -7.200592 139.999924
[Rope1_Seg04]
19 139.999924 -0.000060 -0.000119 -15.180102 8.192829 -1.987216 139.999924
20 139.999924 -0.000060 -0.000119 -16.324722 8.786716 -1.311143 139.999924
[Rope1_Seg05]
19 139.999832 0.000119 -0.000060 -38.792873 11.261125 -3.110777 139.999832
20 139.999832 0.000119 -0.000060 -30.886484 10.686587 -2.783304 139.999832
[Rope1_Seg06]
19 139.999954 0.000119 -0.000060 -83.960915 20.181358 6.875823 139.999954
20 139.999954 0.000119 -0.000060 -88.881020 21.252382 3.377240 139.999954
[Rope1_Seg07]
19 139.999985 0.000060 0.000000 -12.571318 -4.125266 16.334583 139.999985
20 139.999985 0.000060 0.000000 -16.148750 -3.044965 18.431684 139.999985
[Rope1_Seg09]
19 121.602913 0.000119 -0.000089 -89.793175 -1.359789 0.847147 121.602913
20 121.602913 0.000119 -0.000089 -89.793175 -1.359789 0.847147 121.602913
[L_mid_hand01]
19 103.859421 1.038730 8.195221 119.055542 -59.298035 -26.066490 104.187431
20 103.859421 1.038730 8.195221 121.913704 -62.028732 -29.342178 104.187431
[L_mid_hand02]
19 105.572853 -4.139662 -10.864139 -160.167084 40.723114 -60.466171 106.211075
20 105.572853 -4.139662 -10.864139 -162.798126 41.730762 -64.459190 106.211075
[L_mid_hand03]
19 104.641464 17.579376 -3.913581 -9.090188 16.486177 64.488457 106.179977
20 104.641464 17.579376 -3.913581 -8.147993 16.962013 67.754318 106.179977
[null_rope02_connect]
19 328.732849 0.000179 -0.000119 -164.034592 1.720081 -44.568420 328.732849
20 328.732849 0.000179 -0.000119 -164.056229 1.709792 -44.595886 328.732849
[Rope2_Seg01]
19 0.000047 0.000180 0.000000 -4.522820 -68.392433 167.977966 0.000186
20 0.000046 0.000182 0.000000 -5.887506 -68.248245 169.446579 0.000187
[Rope2_Seg02]
19 139.999741 -0.000060 -0.000119 11.140369 -7.156770 -57.513969 139.999756
20 139.999741 -0.000060 -0.000119 10.426763 -6.915615 -55.836246 139.999756
[Rope2_Seg03]
19 140.000107 0.000030 0.000000 13.646648 -9.540237 -37.516014 140.000107
20 140.000107 0.000030 0.000000 14.401072 -9.535561 -39.579163 140.000107
[Rope2_Seg04]
19 139.999802 0.000000 -0.000060 2.340495 -3.382274 -6.846406 139.999802
20 139.999802 0.000000 -0.000060 2.561589 -3.636176 -7.370115 139.999802
[Rope2_Seg05]
19 139.999985 -0.000060 0.000119 0.320588 -0.796636 -1.054047 139.999985
20 139.999985 -0.000060 0.000119 0.346672 -0.905077 -1.099074 139.999985
[Rope2_Seg06]
19 139.999893 -0.000030 -0.000119 -0.448785 0.353719 1.488988 139.999893
20 139.999893 -0.000030 -0.000119 -0.479149 0.273160 1.645039 139.999893
[Rope2_Seg07]
19 139.999893 0.000060 -0.000060 0.026862 -0.413750 -0.131968 139.999893
20 139.999893 0.000060 -0.000060 -0.013372 -0.453340 0.048699 139.999893
[Rope2_Seg09]
19 121.338966 0.000089 -0.000060 33.793236 -1.359788 -0.847141 121.338966
20 121.338966 0.000089 -0.000060 33.793236 -1.359788 -0.847141 121.338966
[R_mid_hand01]
19 104.680779 11.144459 -10.335981 -34.395393 34.968513 42.666153 105.778534
20 104.680779 11.144459 -10.335981 -32.351303 36.833485 46.151863 105.778534
[R_mid_hand02]
19 104.070427 2.443552 8.231699 68.534225 -47.330887 16.661499 104.424065
20 104.070427 2.443552 8.231699 67.067345 -50.463909 18.609608 104.424065
[R_mid_hand03]
19 106.028137 -11.221827 -5.996406 -171.057114 13.096072 -52.505157 106.788818
20 106.028137 -11.221827 -5.996406 -171.852554 13.596701 -55.941738 106.788818
[spine02]
19 129.756927 0.001550 0.000119 0.515799 -4.026809 -15.174235 129.756927
20 129.756927 0.001550 0.000119 0.520539 -4.026188 -15.239306 129.756927
[spine03]
19 78.614082 0.081482 -4.899014 1.988847 3.785631 17.875715 78.766624
20 78.614082 0.081482 -4.899014 1.992195 3.784592 17.917894 78.766624
[pelvis]
19 169.435242 0.051022 0.000000 -0.052191 -0.181832 11.960750 169.435257
20 169.435242 0.051022 0.000000 -0.051834 -0.181935 11.735339 169.435257
[null_rope03_connect]
19 -1.257226 -2.466202 137.391083 -6.845333 -8.544891 79.920982 137.418976
20 -1.257226 -2.466202 137.391083 -6.855128 -8.523587 80.204422 137.418976
[null_rope04_connect]
19 -1.259640 -2.480268 -137.844437 -6.845333 -8.544891 79.920982 137.872513
20 -1.259640 -2.480268 -137.844437 -6.855128 -8.523587 80.204422 137.872513
[Rope3_Seg01]
19 -0.000023 -0.000086 0.000000 28.761347 -39.843601 -91.026581 0.000089
20 -0.000023 -0.000089 0.000000 23.855879 -42.080826 -82.128494 0.000092
[Rope3_Seg02]
19 139.999924 -0.000119 0.000060 3.253391 -9.244628 18.516216 139.999924
20 139.999924 -0.000119 0.000060 1.387286 -5.557665 15.101581 139.999924
[Rope3_Seg03]
19 139.999924 -0.000119 0.000119 -6.359772 -16.480551 37.532970 139.999924
20 139.999924 -0.000119 0.000119 -11.368561 -15.236134 42.110840 139.999924
[Rope3_Seg04]
19 139.999924 0.000119 0.000000 -13.492122 -10.305287 30.884586 139.999924
20 139.999924 0.000119 0.000000 -23.860729 -11.304077 36.938889 139.999924
[Rope3_Seg05]
19 139.999924 -0.000238 0.000060 -8.543337 -3.125743 15.471555 139.999924
20 139.999924 -0.000238 0.000060 -4.296597 -0.430864 7.764247 139.999924
[Rope3_Seg06]
19 139.999893 -0.000119 -0.000060 -4.947538 -2.842168 6.123873 139.999893
20 139.999893 -0.000119 -0.000060 -2.868277 -1.622502 3.130038 139.999893
[Rope3_Seg07]
19 139.999771 0.000060 -0.000119 -2.997184 -2.034743 3.326076 139.999771
20 139.999771 0.000060 -0.000119 -1.588447 -1.076298 1.817136 139.999771
[Rope3_Seg08]
19 139.999985 -0.000060 0.000000 -1.576869 -1.264163 1.839431 139.999985
20 139.999985 -0.000060 0.000000 -0.721415 -0.654589 1.034531 139.999985
[Rope3_Seg09]
19 90.185997 -0.000179 -0.000060 89.793228 -1.359877 -0.847183 90.185997
20 90.185997 -0.000179 -0.000060 89.793228 -1.359877 -0.847183 90.185997
[R_rear_hand01]
19 103.366196 -6.073594 -10.757982 -167.735992 21.565800 -48.800823 104.101845
20 103.366196 -6.073594 -10.757982 -169.183289 22.304335 -52.678284 104.101845
[R_rear_hand02]
19 100.509819 12.039542 -7.992327 -27.197794 28.737703 46.115391 101.543350
20 100.509819 12.039542 -7.992327 -25.326183 30.360588 49.900955 101.543350
[R_rear_hand03]
19 101.539970 5.215704 5.435467 81.295586 -49.108280 10.466788 101.819031
20 101.539970 5.215704 5.435467 80.575409 -52.733398 11.389215 101.819031
[Rope4_Seg01]
19 0.000010 0.000038 -0.000114 -126.257210 60.785385 -124.414017 0.000121
20 0.000010 0.000038 -0.000114 -113.261955 67.255592 -107.566429 0.000121
[Rope4_Seg02]
19 139.999985 0.000060 0.000119 -5.701881 -6.327948 10.108883 139.999985
20 139.999985 0.000060 0.000119 -2.555215 -7.030714 6.074070 139.999985
[Rope4_Seg03]
19 139.999924 0.000000 -0.000238 -5.550733 -7.919637 10.474759 139.999924
20 139.999924 0.000000 -0.000238 -2.720221 -10.311175 8.300572 139.999924
[Rope4_Seg04]
19 139.999985 0.000000 0.000119 -5.024603 -4.986486 12.019771 139.999985
20 139.999985 0.000000 0.000119 -2.478215 -12.801691 13.249842 139.999985
[Rope4_Seg05]
19 139.999802 -0.000060 -0.000119 -3.246003 -6.185603 7.277034 139.999802
20 139.999802 -0.000060 -0.000119 -0.351605 -13.208613 11.958085 139.999802
[Rope4_Seg06]
19 139.999924 0.000000 0.000060 -0.795714 -12.577532 -0.214162 139.999924
20 139.999924 0.000000 0.000060 1.559314 -14.380871 -0.294756 139.999924
[Rope4_Seg07]
19 139.999802 0.000000 0.000000 1.233807 -18.219158 -5.397439 139.999802
20 139.999802 0.000000 0.000000 1.409529 -13.618937 -4.939999 139.999802
[Rope4_Seg08]
19 139.999924 0.000000 0.000119 -0.307681 -10.503908 -1.768014 139.999924
20 139.999924 0.000000 0.000119 0.725112 -7.498248 -0.526621 139.999924
[Rope4_Seg09]
19 90.185791 0.000060 0.000060 -135.617828 2.228885 0.850567 90.185791
20 90.185791 0.000060 0.000060 -135.617828 2.228885 0.850567 90.185791
[L_rear_hand01]
19 101.696655 -8.392275 -7.654577 -19.499582 -34.171791 119.209068 102.329041
20 101.696655 -8.392275 -7.654577 -17.798241 -35.006115 116.214813 102.329041
[L_rear_hand02]
19 102.726799 -1.568258 5.773216 77.604713 62.517117 165.103577 102.900848
20 102.726799 -1.568258 5.773216 76.414978 65.052933 163.777969 102.900848
[L_rear_hand03]
19 104.552910 9.721220 -10.420293 -173.384857 -23.818932 -116.619865 105.519653
20 104.552910 9.721220 -10.420293 -174.535919 -24.090160 -113.787476 105.519653
